<?xml version="1.0" encoding="UTF-8"?>
<svg xmlns="http://www.w3.org/2000/svg" xmlns:xlink="http://www.w3.org/1999/xlink" width="0" height="0">
<symbol viewBox="0 0 24 24" fill="none" stroke="currentColor" stroke-width="2" stroke-linecap="round" stroke-linejoin="round" id="youtube-logo">
  <path d="M2.5 17a24.12 24.12 0 0 1 0-10 2 2 0 0 1 1.4-1.4 49.56 49.56 0 0 1 16.2 0A2 2 0 0 1 21.5 7a24.12 24.12 0 0 1 0 10 2 2 0 0 1-1.4 1.4 49.55 49.55 0 0 1-16.2 0A2 2 0 0 1 2.5 17" ></path>
  <path d="m10 15 5-3-5-3z" ></path>
</symbol>
<symbol viewBox="0 0 15 15" fill="none" id="twitter-logo">
  <path 
    fill-rule="evenodd"
    clip-rule="evenodd"
    d="M7.23336 4.69629C7.23336 2.96884 8.63335 1.56857 10.36 1.56857C11.3736 1.56857 12.183 2.04804 12.7254 2.74385C13.3079 2.62467 13.8557 2.40913 14.3513 2.11508C14.1559 2.72598 13.7424 3.2396 13.2033 3.56463C13.2038 3.56568 13.2042 3.56674 13.2047 3.56779C13.7334 3.50361 14.2364 3.36302 14.7048 3.15546L14.7037 3.15715C14.3667 3.66183 13.9431 4.10736 13.4561 4.47034C13.4823 4.64672 13.4956 4.82427 13.4956 5.00079C13.4956 8.6871 10.6873 12.9746 5.52122 12.9746C3.93906 12.9746 2.46544 12.511 1.22505 11.7152C0.992632 11.5661 0.925108 11.2568 1.07423 11.0244C1.0874 11.0038 1.10183 10.9846 1.11734 10.9666C1.20582 10.8202 1.37438 10.7309 1.5554 10.7522C2.47066 10.8601 3.38568 10.7485 4.19219 10.3962C3.39226 10.0434 2.77129 9.35975 2.50204 8.51974C2.45359 8.3686 2.48835 8.20311 2.59351 8.08422C2.59716 8.0801 2.60087 8.07606 2.60464 8.0721C1.96391 7.50819 1.55973 6.68208 1.55973 5.76143V5.72759C1.55973 5.56814 1.64411 5.42059 1.78155 5.33974C1.82671 5.31317 1.87537 5.29511 1.92532 5.28558C1.70549 4.86154 1.58116 4.37984 1.58116 3.86958C1.58116 3.40165 1.58384 2.81192 1.91332 2.28081C1.98718 2.16175 2.10758 2.08915 2.2364 2.07195C2.42588 2.01237 2.64087 2.06969 2.77406 2.23302C3.86536 3.57126 5.44066 4.49583 7.23366 4.73961L7.23336 4.69629ZM5.52122 11.9746C4.73387 11.9746 3.97781 11.8435 3.27248 11.6023C4.13012 11.4538 4.95307 11.1159 5.66218 10.5602C5.81211 10.4427 5.87182 10.2435 5.81126 10.0629C5.7507 9.88234 5.583 9.75943 5.39255 9.75607C4.68968 9.74366 4.06712 9.39716 3.67793 8.86845C3.86828 8.85306 4.05428 8.82039 4.23445 8.77167C4.43603 8.71716 4.57363 8.53114 4.56674 8.32243C4.55985 8.11372 4.41029 7.93718 4.20555 7.89607C3.42694 7.73977 2.79883 7.16764 2.56169 6.42174C2.76255 6.47025 2.97102 6.4991 3.18482 6.5061C3.38563 6.51267 3.56646 6.38533 3.62795 6.19405C3.68943 6.00277 3.61666 5.79391 3.44963 5.68224C2.86523 5.29155 2.48116 4.62464 2.48116 3.86958C2.48116 3.70213 2.48352 3.55268 2.49355 3.41719C3.85115 4.79913 5.70873 5.68931 7.77588 5.79338C7.93225 5.80126 8.08328 5.73543 8.18395 5.61553C8.28463 5.49562 8.32332 5.33548 8.28851 5.18284C8.25255 5.02517 8.23336 4.86284 8.23336 4.69629C8.23336 3.52085 9.18591 2.56857 10.36 2.56857C11.5943 2.56857 12.4956 3.71208 12.4956 5.00079C12.4956 8.25709 10.0202 11.9746 5.52122 11.9746Z"
    fill="currentColor"
  ></path>
</symbol>
<symbol viewBox="0 0 24 24" fill="none" stroke="currentColor" stroke-width="2" stroke-linecap="round" stroke-linejoin="round" id="twitch-logo">
  <path d="M21 2H3v16h5v4l4-4h5l4-4V2zm-10 9V7m5 4V7" ></path>
</symbol>
<symbol role="img" viewBox="0 0 24 24" id="reddit"><title>Reddit</title><path d="M12 0A12 12 0 0 0 0 12a12 12 0 0 0 12 12 12 12 0 0 0 12-12A12 12 0 0 0 12 0zm5.01 4.744c.688 0 1.25.561 1.25 1.249a1.25 1.25 0 0 1-2.498.056l-2.597-.547-.8 3.747c1.824.07 3.48.632 4.674 1.488.308-.309.73-.491 1.207-.491.968 0 1.754.786 1.754 1.754 0 .716-.435 1.333-1.01 1.614a3.111 3.111 0 0 1 .042.52c0 2.694-3.13 4.87-7.004 4.87-3.874 0-7.004-2.176-7.004-4.87 0-.183.015-.366.043-.534A1.748 1.748 0 0 1 4.028 12c0-.968.786-1.754 1.754-1.754.463 0 .898.196 1.207.49 1.207-.883 2.878-1.43 4.744-1.487l.885-4.182a.342.342 0 0 1 .14-.197.35.35 0 0 1 .238-.042l2.906.617a1.214 1.214 0 0 1 1.108-.701zM9.25 12C8.561 12 8 12.562 8 13.25c0 .687.561 1.248 1.25 1.248.687 0 1.248-.561 1.248-1.249 0-.688-.561-1.249-1.249-1.249zm5.5 0c-.687 0-1.248.561-1.248 1.25 0 .687.561 1.248 1.249 1.248.688 0 1.249-.561 1.249-1.249 0-.687-.562-1.249-1.25-1.249zm-5.466 3.99a.327.327 0 0 0-.231.094.33.33 0 0 0 0 .463c.842.842 2.484.913 2.961.913.477 0 2.105-.056 2.961-.913a.361.361 0 0 0 .029-.463.33.33 0 0 0-.464 0c-.547.533-1.684.73-2.512.73-.828 0-1.979-.196-2.512-.73a.326.326 0 0 0-.232-.095z"></path></symbol>
<symbol viewBox="0 0 24 24" fill="none" stroke="currentColor" stroke-width="2" stroke-linecap="round" stroke-linejoin="round" id="mail">
  <rect width="20" height="16" x="2" y="4" rx="2" ></rect>
  <path d="m22 7-8.97 5.7a1.94 1.94 0 0 1-2.06 0L2 7" ></path>
</symbol>
<symbol viewBox="0 0 15 15" fill="none" id="magnifying-glass">
  <path 
    fill-rule="evenodd"
    clip-rule="evenodd"
    d="M10 6.5C10 8.433 8.433 10 6.5 10C4.567 10 3 8.433 3 6.5C3 4.567 4.567 3 6.5 3C8.433 3 10 4.567 10 6.5ZM9.30884 10.0159C8.53901 10.6318 7.56251 11 6.5 11C4.01472 11 2 8.98528 2 6.5C2 4.01472 4.01472 2 6.5 2C8.98528 2 11 4.01472 11 6.5C11 7.56251 10.6318 8.53901 10.0159 9.30884L12.8536 12.1464C13.0488 12.3417 13.0488 12.6583 12.8536 12.8536C12.6583 13.0488 12.3417 13.0488 12.1464 12.8536L9.30884 10.0159Z"
    fill="currentColor"
  ></path>
</symbol>
<symbol viewBox="0 0 24 24" fill="none" stroke="currentColor" stroke-width="2" stroke-linecap="round" stroke-linejoin="round" id="loader-2">
  <path d="M21 12a9 9 0 1 1-6.219-8.56" ></path>
</symbol>
<symbol viewBox="0 0 15 15" fill="none" id="link-2">
  <path 
    fill-rule="evenodd"
    clip-rule="evenodd"
    d="M8.51194 3.00541C9.18829 2.54594 10.0435 2.53694 10.6788 2.95419C10.8231 3.04893 10.9771 3.1993 11.389 3.61119C11.8009 4.02307 11.9513 4.17714 12.046 4.32141C12.4633 4.95675 12.4543 5.81192 11.9948 6.48827C11.8899 6.64264 11.7276 6.80811 11.3006 7.23511L10.6819 7.85383C10.4867 8.04909 10.4867 8.36567 10.6819 8.56093C10.8772 8.7562 11.1938 8.7562 11.389 8.56093L12.0077 7.94221L12.0507 7.89929C12.4203 7.52976 12.6568 7.2933 12.822 7.0502C13.4972 6.05623 13.5321 4.76252 12.8819 3.77248C12.7233 3.53102 12.4922 3.30001 12.1408 2.94871L12.0961 2.90408L12.0515 2.85942C11.7002 2.508 11.4692 2.27689 11.2277 2.11832C10.2377 1.46813 8.94398 1.50299 7.95001 2.17822C7.70691 2.34336 7.47044 2.57991 7.1009 2.94955L7.058 2.99247L6.43928 3.61119C6.24401 3.80645 6.24401 4.12303 6.43928 4.31829C6.63454 4.51355 6.95112 4.51355 7.14638 4.31829L7.7651 3.69957C8.1921 3.27257 8.35757 3.11027 8.51194 3.00541ZM4.31796 7.14672C4.51322 6.95146 4.51322 6.63487 4.31796 6.43961C4.12269 6.24435 3.80611 6.24435 3.61085 6.43961L2.99213 7.05833L2.94922 7.10124C2.57957 7.47077 2.34303 7.70724 2.17788 7.95035C1.50265 8.94432 1.4678 10.238 2.11799 11.2281C2.27656 11.4695 2.50766 11.7005 2.8591 12.0518L2.90374 12.0965L2.94837 12.1411C3.29967 12.4925 3.53068 12.7237 3.77214 12.8822C4.76219 13.5324 6.05589 13.4976 7.04986 12.8223C7.29296 12.6572 7.52943 12.4206 7.89896 12.051L7.89897 12.051L7.94188 12.0081L8.5606 11.3894C8.75586 11.1941 8.75586 10.8775 8.5606 10.6823C8.36533 10.487 8.04875 10.487 7.85349 10.6823L7.23477 11.301C6.80777 11.728 6.6423 11.8903 6.48794 11.9951C5.81158 12.4546 4.95642 12.4636 4.32107 12.0464C4.17681 11.9516 4.02274 11.8012 3.61085 11.3894C3.19896 10.9775 3.0486 10.8234 2.95385 10.6791C2.53661 10.0438 2.54561 9.18863 3.00507 8.51227C3.10993 8.35791 3.27224 8.19244 3.69924 7.76544L4.31796 7.14672ZM9.62172 6.08558C9.81698 5.89032 9.81698 5.57373 9.62172 5.37847C9.42646 5.18321 9.10988 5.18321 8.91461 5.37847L5.37908 8.91401C5.18382 9.10927 5.18382 9.42585 5.37908 9.62111C5.57434 9.81637 5.89092 9.81637 6.08619 9.62111L9.62172 6.08558Z"
    fill="currentColor"
  ></path>
</symbol>
<symbol viewBox="0 0 15 15" fill="none" id="instagram-logo">
  <path fill-rule="evenodd" clip-rule="evenodd" d="M12.9091 12.909C13.2365 12.5817 13.4918 12.1895 13.6588 11.7577C13.8195 11.3443 13.9294 10.8718 13.961 10.1799C13.9926 9.48665 14.0001 9.26529 14.0001 7.50001C14.0001 5.73473 13.9926 5.51328 13.961 4.82008C13.9294 4.12821 13.8195 3.65573 13.6588 3.24228C13.4956 2.80857 13.2398 2.41567 12.9091 2.091C12.5844 1.76028 12.1915 1.50437 11.7578 1.34113C11.3443 1.18056 10.8718 1.0707 10.1799 1.03924C9.48675 1.00748 9.26537 1 7.50006 1C5.73476 1 5.51333 1.00748 4.82014 1.03912C4.12826 1.0707 3.65578 1.18056 3.24233 1.34125C2.80862 1.50447 2.41573 1.76032 2.09105 2.09098C1.76032 2.41563 1.5044 2.80852 1.34113 3.24225C1.18056 3.65573 1.0707 4.12821 1.03924 4.82008C1.00748 5.51328 1 5.73471 1 7.50001C1 9.26532 1.00748 9.48675 1.03924 10.1799C1.07083 10.8718 1.18069 11.3443 1.34138 11.7577C1.5046 12.1915 1.76045 12.5843 2.09111 12.909C2.41578 13.2397 2.80867 13.4955 3.24238 13.6587C3.65586 13.8194 4.12834 13.9293 4.82019 13.9609C5.51348 13.9925 5.73483 14 7.50012 14C9.2654 14 9.48685 13.9925 10.18 13.9609C10.8719 13.9293 11.3444 13.8194 11.7578 13.6587C12.1896 13.4917 12.5818 13.2364 12.9091 12.909ZM1.99949 6.73496C1.99974 6.94524 2.00005 7.19543 2.00005 7.50002C2.00005 7.80461 1.99974 8.0548 1.99949 8.26507C1.99849 9.08596 1.99824 9.29856 2.01963 9.7655C2.04625 10.3509 2.07823 10.7811 2.17588 11.1053C2.26976 11.417 2.37505 11.7342 2.7188 12.1171C3.06255 12.4999 3.39411 12.6733 3.81645 12.8007C4.23879 12.928 4.7696 12.9554 5.23052 12.9764C5.75332 13.0003 5.96052 13.0002 7.05714 12.9999L7.50006 12.9999C7.79304 12.9999 8.03569 13.0001 8.2409 13.0004C9.08195 13.0013 9.29425 13.0015 9.76575 12.9799C10.3512 12.9533 10.7814 12.9213 11.1056 12.8237C11.4173 12.7298 11.7345 12.6245 12.1173 12.2807C12.5001 11.937 12.6735 11.6054 12.8009 11.1831C12.9283 10.7607 12.9557 10.2299 12.9767 9.76902C13.0005 9.24689 13.0004 9.04027 13.0002 7.94749V7.94738L13.0001 7.50039L13.0001 7.05747C13.0004 5.96085 13.0005 5.75365 12.9766 5.23085C12.9556 4.76993 12.9282 4.23912 12.8009 3.81678C12.6735 3.39445 12.5001 3.06288 12.1173 2.71913C11.7345 2.37538 11.4172 2.27009 11.1056 2.17621C10.7813 2.07856 10.3511 2.04658 9.76571 2.01996C9.29421 1.99836 9.08194 1.99859 8.24092 1.99951H8.24092C8.0357 1.99974 7.79305 2.00001 7.50006 2.00001L7.05704 1.99993C5.96051 1.99964 5.75331 1.99958 5.23052 2.02343C4.7696 2.04446 4.23879 2.07183 3.81645 2.19921C3.39411 2.32659 3.06255 2.49999 2.7188 2.88281C2.37505 3.26562 2.26976 3.58286 2.17588 3.89453C2.07823 4.21874 2.04625 4.64894 2.01963 5.23437C1.99824 5.70131 1.99849 5.91401 1.99949 6.73496ZM7.49996 5.25015C6.25741 5.25015 5.25012 6.25744 5.25012 7.49999C5.25012 8.74254 6.25741 9.74983 7.49996 9.74983C8.74251 9.74983 9.7498 8.74254 9.7498 7.49999C9.7498 6.25744 8.74251 5.25015 7.49996 5.25015ZM4.25012 7.49999C4.25012 5.70515 5.70512 4.25015 7.49996 4.25015C9.2948 4.25015 10.7498 5.70515 10.7498 7.49999C10.7498 9.29483 9.2948 10.7498 7.49996 10.7498C5.70512 10.7498 4.25012 9.29483 4.25012 7.49999ZM10.9697 4.7803C11.3839 4.7803 11.7197 4.44452 11.7197 4.0303C11.7197 3.61609 11.3839 3.2803 10.9697 3.2803C10.5555 3.2803 10.2197 3.61609 10.2197 4.0303C10.2197 4.44452 10.5555 4.7803 10.9697 4.7803Z" fill="currentColor"></path>
</symbol>
<symbol viewBox="0 0 24 24" fill="none" stroke="currentColor" stroke-width="2" stroke-linecap="round" stroke-linejoin="round" id="hourglass">
  <path d="M5 22h14" ></path>
  <path d="M5 2h14" ></path>
  <path d="M17 22v-4.172a2 2 0 0 0-.586-1.414L12 12l-4.414 4.414A2 2 0 0 0 7 17.828V22" ></path>
  <path d="M7 2v4.172a2 2 0 0 0 .586 1.414L12 12l4.414-4.414A2 2 0 0 0 17 6.172V2" ></path>
</symbol>
<symbol viewBox="0 0 15 15" id="hamburger-menu">
  <path 
    d="M1.5 3C1.22386 3 1 3.22386 1 3.5C1 3.77614 1.22386 4 1.5 4H13.5C13.7761 4 14 3.77614 14 3.5C14 3.22386 13.7761 3 13.5 3H1.5ZM1 7.5C1 7.22386 1.22386 7 1.5 7H13.5C13.7761 7 14 7.22386 14 7.5C14 7.77614 13.7761 8 13.5 8H1.5C1.22386 8 1 7.77614 1 7.5ZM1 11.5C1 11.2239 1.22386 11 1.5 11H13.5C13.7761 11 14 11.2239 14 11.5C14 11.7761 13.7761 12 13.5 12H1.5C1.22386 12 1 11.7761 1 11.5Z"
  ></path>
</symbol>
<symbol viewBox="0 0 15 15" fill="none" id="frame">
  <path 
    fill-rule="evenodd"
    clip-rule="evenodd"
    d="M11 1.5C11 1.22386 10.7761 1 10.5 1C10.2239 1 10 1.22386 10 1.5V4H5V1.5C5 1.22386 4.77614 1 4.5 1C4.22386 1 4 1.22386 4 1.5V4H1.5C1.22386 4 1 4.22386 1 4.5C1 4.77614 1.22386 5 1.5 5H4V10H1.5C1.22386 10 1 10.2239 1 10.5C1 10.7761 1.22386 11 1.5 11H4V13.5C4 13.7761 4.22386 14 4.5 14C4.77614 14 5 13.7761 5 13.5V11H10V13.5C10 13.7761 10.2239 14 10.5 14C10.7761 14 11 13.7761 11 13.5V11H13.5C13.7761 11 14 10.7761 14 10.5C14 10.2239 13.7761 10 13.5 10H11V5H13.5C13.7761 5 14 4.77614 14 4.5C14 4.22386 13.7761 4 13.5 4H11V1.5ZM10 10V5H5V10H10Z"
    fill="currentColor"
  ></path>
</symbol>
<symbol viewBox="0 0 24 24" fill="none" stroke="currentColor" stroke-width="2" stroke-linecap="round" stroke-linejoin="round" id="facebook-logo">
  <path d="M18 2h-3a5 5 0 0 0-5 5v3H7v4h3v8h4v-8h3l1-4h-4V7a1 1 0 0 1 1-1h3z" ></path>
</symbol>
<symbol viewBox="0 0 578.000000 432.000000" preserveAspectRatio="xMidYMid meet" id="epic-esports">

<g transform="translate(0.000000,432.000000) scale(0.100000,-0.100000)" stroke="none">
<path d="M820 3955 l0 -345 -29 0 c-15 0 -86 -5 -157 -11 -71 -6 -237 -14
-368 -17 l-239 -7 181 -170 182 -169 0 -1006 0 -1007 63 -59 c34 -33 131 -120
215 -193 l152 -132 0 -299 c0 -184 4 -301 10 -305 5 -3 56 1 112 9 124 18 605
70 848 91 96 9 296 18 443 22 l269 6 116 -114 c64 -63 149 -145 187 -182 l71
-67 188 181 187 182 307 -6 c313 -6 535 -21 857 -58 216 -24 478 -57 523 -65
l32 -6 0 290 c0 160 3 297 6 305 3 8 80 82 172 163 92 81 191 170 220 198 l52
50 0 428 c0 240 -4 429 -9 432 -8 5 -582 136 -595 136 -3 0 -6 6 -5 13 1 11
91 93 480 435 l129 113 0 233 0 233 121 109 c66 60 146 132 177 161 l57 52
-140 0 c-125 0 -330 10 -575 29 l-85 7 -3 343 -2 342 -2075 0 -2075 0 0 -345z
m1730 100 c28 -25 47 -46 43 -46 -29 -5 -164 -6 -775 -8 l-688 -1 0 -165 0
-165 -45 0 -45 0 0 215 0 215 730 0 729 0 51 -45z m2210 -164 c0 -116 -3 -212
-7 -214 -5 -2 -25 -2 -45 0 l-38 5 -2 160 -3 160 -750 -1 -750 -2 50 51 49 50
748 0 748 0 0 -209z m-1640 152 c0 -5 -56 -66 -124 -138 l-124 -130 -31 30
-30 30 101 108 100 107 54 0 c30 0 54 -3 54 -7z m-805 -238 l60 -55 -43 0
c-40 0 -49 5 -100 55 l-57 55 40 -1 c34 0 49 -8 100 -54z m1245 48 c0 -4 -21
-29 -47 -55 -40 -41 -53 -48 -85 -48 -21 0 -38 3 -38 8 0 4 23 28 52 54 40 36
61 47 86 48 17 0 32 -3 32 -7z m-1670 -68 l23 -25 -311 0 -312 0 0 25 0 25
288 0 289 0 23 -25z m2610 0 l0 -25 -322 0 -323 1 28 24 28 25 295 0 294 0 0
-25z m-1523 -290 c66 -20 134 -80 164 -147 l24 -53 0 -445 0 -445 -26 -55
c-31 -67 -73 -110 -133 -139 -46 -21 -63 -23 -491 -71 -104 -12 -197 -22 -205
-23 -13 -2 -15 -42 -11 -305 3 -248 1 -303 -10 -307 -8 -2 -81 -11 -164 -20
-82 -9 -176 -18 -207 -22 l-58 -6 0 1007 0 1006 26 0 c14 0 89 5 167 11 173
12 507 25 718 27 113 2 169 -2 206 -13z m772 -1 l31 -6 0 -1000 0 -999 -162 6
c-90 3 -187 8 -215 11 l-53 5 0 995 0 994 184 0 c101 0 198 -3 215 -6z m-2074
-223 c0 -104 -2 -192 -5 -195 -3 -3 -77 -12 -165 -21 -88 -8 -224 -22 -302
-31 l-143 -17 0 -203 0 -203 28 4 c15 3 113 16 217 30 105 14 205 28 223 31
l32 5 0 -203 0 -204 -247 -34 -248 -35 -3 -213 -2 -212 22 4 c67 15 580 87
585 83 1 -2 5 -91 9 -198 5 -136 4 -198 -4 -203 -6 -3 -95 -17 -199 -31 -282
-37 -449 -62 -643 -96 -96 -18 -182 -32 -190 -33 -13 -1 -15 113 -16 949 l-2
950 -83 77 c-53 50 -77 79 -68 82 19 5 623 63 859 81 102 8 205 16 230 18 25
2 61 4 80 5 l35 2 0 -189z m2826 174 c185 -14 703 -69 761 -81 l26 -5 -43 -40
-44 -40 -3 -184 c-3 -168 -5 -186 -24 -212 -37 -49 -89 -70 -236 -92 -75 -12
-142 -21 -148 -21 -8 0 -11 37 -9 121 1 66 -1 122 -3 124 -7 7 -249 35 -303
35 l-51 0 1 -615 c0 -608 0 -616 20 -620 25 -5 317 -45 328 -45 4 0 7 47 7
105 0 77 3 105 13 105 6 0 101 -16 210 -37 l197 -37 0 -308 c0 -240 -3 -308
-12 -308 -7 0 -31 5 -53 10 -79 18 -453 80 -693 114 -265 38 -319 55 -381 116
-18 19 -43 54 -55 79 -21 46 -21 51 -21 852 l0 805 30 59 c33 64 88 111 146
125 52 12 127 11 340 -5z m-1035 -2225 c477 -27 926 -69 946 -89 4 -3 9 -123
10 -266 l3 -259 110 -18 c61 -9 116 -17 123 -17 9 -1 12 47 12 209 0 116 3
210 6 210 4 0 24 -5 45 -12 l39 -11 0 -249 c0 -242 -1 -248 -20 -248 -11 0
-132 13 -270 30 -264 31 -495 52 -805 71 -249 16 -1160 16 -1430 0 -429 -25
-902 -68 -1110 -101 -33 -6 -66 -10 -72 -10 -10 0 -13 57 -13 250 l0 249 38
10 c20 6 40 11 45 11 4 0 7 -94 7 -208 l0 -208 130 20 130 20 0 262 0 262 38
6 c161 26 755 75 1072 89 174 8 808 6 966 -3z m-646 -795 c28 -25 55 -45 59
-45 5 0 32 21 60 46 40 36 56 45 81 42 l31 -3 -84 -83 -84 -84 -84 78 c-46 43
-85 82 -87 86 -2 4 10 8 27 8 22 0 44 -13 81 -45z"></path>
<path d="M2496 3094 c-88 -7 -169 -14 -180 -16 -20 -3 -21 -7 -17 -278 1 -151
4 -276 5 -277 2 -3 330 34 384 43 l32 5 0 269 0 270 -32 -1 c-18 -1 -105 -7
-192 -15z"></path>
<path d="M2875 1055 c-114 -40 -146 -183 -61 -268 106 -106 295 -39 298 106 1
71 -41 131 -114 162 -45 18 -71 18 -123 0z m120 -100 c34 -33 32 -70 -5 -107
-26 -25 -36 -29 -63 -24 -67 13 -92 95 -41 135 36 28 79 27 109 -4z"></path>
<path d="M2377 1043 c-4 -3 -7 -76 -7 -160 l0 -154 48 3 47 3 3 43 3 42 45 0
c114 0 179 78 138 165 -25 53 -57 65 -172 65 -54 0 -102 -3 -105 -7z m191
-105 c3 -22 -2 -30 -23 -38 -14 -5 -37 -10 -51 -10 -21 0 -24 4 -24 41 l0 40
48 -3 c43 -3 47 -5 50 -30z"></path>
<path d="M3238 895 l3 -155 44 0 45 0 0 40 c0 36 3 40 25 40 17 0 33 -12 55
-45 30 -43 33 -45 81 -45 l51 0 -22 33 c-43 65 -44 72 -16 100 48 48 26 145
-39 173 -22 9 -70 14 -132 14 l-98 0 3 -155z m190 59 c5 -9 7 -25 5 -35 -4
-15 -15 -19 -54 -19 l-49 0 0 35 c0 35 0 35 45 35 30 0 47 -5 53 -16z"></path>
<path d="M2022 1023 c-60 -29 -82 -113 -41 -152 13 -12 49 -24 91 -31 55 -10
68 -15 66 -28 -4 -24 -51 -27 -110 -7 -48 16 -49 15 -68 -7 -11 -13 -19 -26
-20 -30 -1 -20 88 -51 145 -51 92 0 141 31 152 97 8 50 -34 91 -103 102 -27 4
-58 10 -69 14 -19 7 -18 9 8 21 23 10 37 10 74 1 25 -7 46 -11 47 -10 0 2 9
18 19 36 l18 32 -35 15 c-46 20 -133 19 -174 -2z"></path>
<path d="M3620 1000 l0 -40 50 0 50 0 0 -115 0 -115 45 0 44 0 3 113 3 112 46
3 c43 3 47 5 53 34 3 16 3 34 0 39 -3 5 -70 9 -150 9 l-144 0 0 -40z"></path>
<path d="M1673 1011 l-123 -14 0 -157 0 -158 48 6 c26 2 83 10 127 16 l80 11
0 40 c0 26 -4 39 -12 38 -7 -2 -44 -6 -83 -9 -60 -6 -70 -5 -70 9 0 11 12 18
38 22 96 16 92 14 92 52 l0 35 -66 -7 c-60 -6 -66 -5 -62 12 3 19 30 27 121
38 46 6 47 7 47 40 0 19 -3 35 -7 37 -5 2 -63 -3 -130 -11z"></path>
<path d="M4041 999 c-46 -44 -49 -107 -6 -135 13 -8 52 -23 87 -33 39 -11 63
-23 63 -32 0 -19 -65 -15 -123 7 -41 15 -44 15 -57 -2 -8 -11 -14 -26 -12 -33
6 -39 143 -79 206 -61 53 15 81 47 81 92 0 51 -30 79 -110 103 -67 20 -80 30
-50 40 18 6 60 -2 102 -20 12 -5 21 2 32 24 21 39 21 36 -18 55 -21 10 -60 16
-103 16 -56 0 -73 -4 -92 -21z"></path>
</g>
</symbol>
<symbol viewBox="0 0 15 15" fill="none" id="cross-1">
  <path 
    fill-rule="evenodd"
    clip-rule="evenodd"
    d="M12.8536 2.85355C13.0488 2.65829 13.0488 2.34171 12.8536 2.14645C12.6583 1.95118 12.3417 1.95118 12.1464 2.14645L7.5 6.79289L2.85355 2.14645C2.65829 1.95118 2.34171 1.95118 2.14645 2.14645C1.95118 2.34171 1.95118 2.65829 2.14645 2.85355L6.79289 7.5L2.14645 12.1464C1.95118 12.3417 1.95118 12.6583 2.14645 12.8536C2.34171 13.0488 2.65829 13.0488 2.85355 12.8536L7.5 8.20711L12.1464 12.8536C12.3417 13.0488 12.6583 13.0488 12.8536 12.8536C13.0488 12.6583 13.0488 12.3417 12.8536 12.1464L8.20711 7.5L12.8536 2.85355Z"
    fill="currentColor"
  ></path>
</symbol>
<symbol viewBox="0 0 15 15" fill="none" id="chevron-left">
  <path 
    fill-rule="evenodd"
    clip-rule="evenodd"
    d="M8.84182 3.13514C9.04327 3.32401 9.05348 3.64042 8.86462 3.84188L5.43521 7.49991L8.86462 11.1579C9.05348 11.3594 9.04327 11.6758 8.84182 11.8647C8.64036 12.0535 8.32394 12.0433 8.13508 11.8419L4.38508 7.84188C4.20477 7.64955 4.20477 7.35027 4.38508 7.15794L8.13508 3.15794C8.32394 2.95648 8.64036 2.94628 8.84182 3.13514Z"
    fill="currentColor"
  ></path>
</symbol>
<symbol viewBox="0 0 15 15" fill="none" id="chevron-down">
  <path 
    fill-rule="evenodd"
    clip-rule="evenodd"
    d="M3.13523 6.15803C3.3241 5.95657 3.64052 5.94637 3.84197 6.13523L7.5 9.56464L11.158 6.13523C11.3595 5.94637 11.6759 5.95657 11.8648 6.15803C12.0536 6.35949 12.0434 6.67591 11.842 6.86477L7.84197 10.6148C7.64964 10.7951 7.35036 10.7951 7.15803 10.6148L3.15803 6.86477C2.95657 6.67591 2.94637 6.35949 3.13523 6.15803Z"
    fill="currentColor"
  ></path>
</symbol>
<symbol viewBox="0 0 15 15" fill="none" id="check-circled">
  <path 
    fill-rule="evenodd"
    clip-rule="evenodd"
    d="M7.49991 0.877045C3.84222 0.877045 0.877075 3.84219 0.877075 7.49988C0.877075 11.1575 3.84222 14.1227 7.49991 14.1227C11.1576 14.1227 14.1227 11.1575 14.1227 7.49988C14.1227 3.84219 11.1576 0.877045 7.49991 0.877045ZM1.82708 7.49988C1.82708 4.36686 4.36689 1.82704 7.49991 1.82704C10.6329 1.82704 13.1727 4.36686 13.1727 7.49988C13.1727 10.6329 10.6329 13.1727 7.49991 13.1727C4.36689 13.1727 1.82708 10.6329 1.82708 7.49988ZM10.1589 5.53774C10.3178 5.31191 10.2636 5.00001 10.0378 4.84109C9.81194 4.68217 9.50004 4.73642 9.34112 4.96225L6.51977 8.97154L5.35681 7.78706C5.16334 7.59002 4.84677 7.58711 4.64973 7.78058C4.45268 7.97404 4.44978 8.29061 4.64325 8.48765L6.22658 10.1003C6.33054 10.2062 6.47617 10.2604 6.62407 10.2483C6.77197 10.2363 6.90686 10.1591 6.99226 10.0377L10.1589 5.53774Z"
    fill="currentColor"
  ></path>
</symbol>
</svg>